<?xml version="1.0" standalone="no"?>
<!DOCTYPE svg PUBLIC "-//W3C//DTD SVG 20010904//EN"
 "http://www.w3.org/TR/2001/REC-SVG-20010904/DTD/svg10.dtd">
<svg version="1.0" xmlns="http://www.w3.org/2000/svg"
 width="128.000000pt" height="128.000000pt" viewBox="0 0 128.000000 128.000000"
 preserveAspectRatio="xMidYMid meet">

<g transform="translate(0.000000,128.000000) scale(0.100000,-0.100000)"
fill="#000000" stroke="none">
<path d="M29 1171 l-29 -29 0 -224 c0 -203 2 -226 19 -255 11 -17 29 -34 40
-38 18 -5 21 -16 23 -98 3 -85 5 -92 24 -95 17 -2 37 17 89 83 37 47 76 95 88
106 18 16 19 21 8 29 -23 13 -36 3 -103 -82 l-63 -81 -5 79 c-5 76 -6 79 -35
93 -16 8 -33 19 -37 25 -4 6 -8 111 -8 233 0 218 0 222 22 237 19 14 69 16
341 16 382 0 377 1 377 -98 0 -45 3 -53 18 -50 35 7 26 114 -13 154 l-24 24
-351 0 -352 0 -29 -29z"/>
<path d="M423 959 c-17 -5 -41 -21 -52 -35 -20 -25 -21 -39 -21 -291 l0 -265
34 -34 34 -34 274 0 273 0 88 -111 c70 -87 93 -110 110 -107 21 3 22 9 25 108
l3 105 32 20 c54 35 57 47 57 317 0 264 -3 284 -49 315 -24 16 -61 18 -401 20
-212 1 -389 -2 -407 -8z m791 -50 l26 -20 0 -252 c0 -139 -4 -258 -9 -266 -5
-8 -24 -22 -43 -30 l-33 -16 -3 -98 -3 -99 -70 89 c-107 135 -69 123 -382 123
-238 0 -273 2 -289 17 -17 15 -18 37 -18 272 0 141 4 261 8 267 21 31 51 33
418 34 361 0 372 -1 398 -21z"/>
<path d="M500 786 c0 -8 7 -17 16 -20 20 -8 578 -8 598 0 9 3 16 12 16 20 0
12 -52 14 -315 14 -263 0 -315 -2 -315 -14z"/>
<path d="M505 649 c-4 -6 -3 -15 2 -20 5 -5 136 -8 314 -7 262 3 304 5 304 18
0 13 -42 15 -307 18 -215 1 -309 -1 -313 -9z"/>
<path d="M507 513 c-4 -3 -7 -12 -7 -20 0 -10 59 -13 315 -13 263 0 315 2 315
14 0 8 -7 17 -16 20 -21 8 -599 8 -607 -1z"/>
</g>
</svg>
