<?xml version="1.0" standalone="no"?>
<!DOCTYPE svg PUBLIC "-//W3C//DTD SVG 20010904//EN"
 "http://www.w3.org/TR/2001/REC-SVG-20010904/DTD/svg10.dtd">
<svg version="1.0" xmlns="http://www.w3.org/2000/svg"
 width="128.000000pt" height="128.000000pt" viewBox="0 0 128.000000 128.000000"
 preserveAspectRatio="xMidYMid meet">

<g transform="translate(0.000000,128.000000) scale(0.100000,-0.100000)"
fill="#000000" stroke="none">
<path d="M17 1262 c-10 -10 -17 -27 -17 -37 0 -12 113 -132 282 -302 l283
-283 -283 -283 c-186 -187 -282 -290 -282 -303 0 -25 30 -54 55 -54 12 0 132
113 302 282 l283 283 283 -283 c187 -186 290 -282 303 -282 25 0 54 30 54 55
0 12 -113 132 -282 302 l-283 283 283 283 c186 187 282 290 282 303 0 25 -30
54 -55 54 -12 0 -132 -113 -302 -282 l-283 -283 -283 283 c-187 186 -290 282
-303 282 -12 0 -28 -8 -37 -18z"/>
</g>
</svg>
