<?xml version="1.0" standalone="no"?>
<!DOCTYPE svg PUBLIC "-//W3C//DTD SVG 20010904//EN"
 "http://www.w3.org/TR/2001/REC-SVG-20010904/DTD/svg10.dtd">
<svg version="1.0" xmlns="http://www.w3.org/2000/svg"
 width="128.000000pt" height="128.000000pt" viewBox="0 0 128.000000 128.000000"
 preserveAspectRatio="xMidYMid meet">

<g transform="translate(0.000000,128.000000) scale(0.100000,-0.100000)"
fill="#000000" stroke="none">
<path d="M510 894 c-189 -17 -413 -71 -442 -106 -45 -52 -86 -295 -59 -346 28
-52 251 -75 372 -39 81 24 84 31 66 124 -9 43 -13 80 -11 83 7 7 401 7 408 0
2 -3 -2 -40 -11 -83 -18 -93 -15 -100 66 -124 121 -36 344 -13 372 39 27 51
-14 294 -59 346 -52 61 -482 126 -702 106z m278 -84 c117 -10 284 -42 337 -65
25 -10 34 -23 48 -69 10 -31 21 -88 24 -125 l6 -69 -49 -9 c-63 -10 -158 -10
-208 0 -38 8 -38 9 -32 45 3 20 9 62 12 93 10 84 10 84 -286 84 -296 0 -296 0
-286 -84 3 -31 9 -73 12 -93 6 -36 6 -37 -32 -45 -50 -10 -145 -10 -208 0
l-49 9 6 71 c4 40 14 96 22 125 19 63 30 69 182 102 171 37 323 46 501 30z"/>
</g>
</svg>
