<?xml version="1.0" standalone="no"?>
<!DOCTYPE svg PUBLIC "-//W3C//DTD SVG 20010904//EN"
 "http://www.w3.org/TR/2001/REC-SVG-20010904/DTD/svg10.dtd">
<svg version="1.0" xmlns="http://www.w3.org/2000/svg"
 width="128.000000pt" height="128.000000pt" viewBox="0 0 128.000000 128.000000"
 preserveAspectRatio="xMidYMid meet">

<g transform="translate(0.000000,128.000000) scale(0.100000,-0.100000)"
fill="#000000" stroke="none">
<path d="M680 1268 c-50 -14 -131 -72 -159 -113 -41 -61 -60 -132 -61 -222 l0
-83 -68 0 c-109 0 -112 -5 -112 -159 0 -158 2 -161 108 -161 l72 0 0 -242 c0
-134 4 -248 8 -254 17 -26 56 -34 162 -34 104 0 112 1 135 25 l25 24 0 241 0
240 83 0 c120 0 121 1 125 149 4 117 3 121 -22 146 -23 23 -33 25 -106 25
l-81 0 3 58 3 57 89 5 c115 7 116 8 116 160 0 154 4 150 -161 149 -68 0 -140
-5 -159 -11z m250 -138 l0 -80 -60 0 c-71 0 -123 -19 -140 -51 -7 -12 -15 -59
-18 -104 -4 -75 -3 -84 17 -104 18 -18 33 -21 106 -21 l85 0 0 -85 0 -85 -95
0 c-83 0 -96 -2 -105 -19 -6 -12 -10 -114 -10 -260 l0 -241 -90 0 -90 0 0 248
c0 180 -3 251 -12 260 -7 7 -43 12 -90 12 l-78 0 0 85 0 85 73 0 c43 0 80 5
89 13 12 9 17 39 21 124 11 232 81 299 315 302 l82 1 0 -80z"/>
</g>
</svg>
