<?xml version="1.0" standalone="no"?>
<!DOCTYPE svg PUBLIC "-//W3C//DTD SVG 20010904//EN"
 "http://www.w3.org/TR/2001/REC-SVG-20010904/DTD/svg10.dtd">
<svg version="1.0" xmlns="http://www.w3.org/2000/svg"
 width="128.000000pt" height="128.000000pt" viewBox="0 0 128.000000 128.000000"
 preserveAspectRatio="xMidYMid meet">

<g transform="translate(0.000000,128.000000) scale(0.100000,-0.100000)"
fill="#000000" stroke="none">
<path d="M287 1269 c-107 -26 -201 -105 -251 -209 l-31 -65 0 -355 0 -355 31
-65 c39 -83 101 -145 184 -184 l65 -31 355 0 355 0 65 31 c83 39 145 101 184
184 l31 65 0 355 0 355 -31 65 c-39 83 -101 145 -184 184 l-65 31 -335 2
c-184 1 -352 -3 -373 -8z m715 -109 c68 -26 133 -90 158 -158 18 -48 20 -78
20 -362 0 -356 -4 -381 -83 -458 -79 -78 -102 -82 -457 -82 -355 0 -378 4
-457 82 -79 77 -83 102 -83 458 0 356 4 381 83 458 79 78 98 81 454 82 288 0
317 -2 365 -20z"/>
<path d="M957 1022 c-22 -24 -21 -45 1 -65 24 -22 45 -21 65 1 22 24 21 45 -1
65 -24 22 -45 21 -65 -1z"/>
<path d="M510 958 c-76 -29 -160 -114 -188 -191 -49 -131 -20 -271 77 -368 70
-70 141 -99 241 -99 100 0 171 29 241 99 97 97 126 237 77 368 -29 79 -112
162 -191 191 -77 29 -181 29 -257 0z m260 -113 c24 -17 58 -51 75 -75 28 -41
30 -52 30 -130 0 -78 -2 -89 -30 -130 -17 -24 -51 -58 -75 -75 -41 -28 -52
-30 -130 -30 -78 0 -89 2 -130 30 -24 17 -58 51 -75 75 -25 37 -30 57 -33 117
-6 108 35 180 133 233 33 17 53 21 115 18 64 -3 82 -8 120 -33z"/>
</g>
</svg>
