<?xml version="1.0" standalone="no"?>
<!DOCTYPE svg PUBLIC "-//W3C//DTD SVG 20010904//EN"
 "http://www.w3.org/TR/2001/REC-SVG-20010904/DTD/svg10.dtd">
<svg version="1.0" xmlns="http://www.w3.org/2000/svg"
 width="128.000000pt" height="128.000000pt" viewBox="0 0 128.000000 128.000000"
 preserveAspectRatio="xMidYMid meet">

<g transform="translate(0.000000,128.000000) scale(0.100000,-0.100000)"
fill="#000000" stroke="none">
<path d="M43 1060 c-12 -5 -26 -18 -32 -29 -7 -13 -11 -148 -11 -394 0 -354 1
-376 19 -398 l19 -24 602 0 602 0 19 24 c18 22 19 44 19 401 0 357 -1 379 -19
401 l-19 24 -589 2 c-327 1 -598 -2 -610 -7z m1137 -45 c0 -13 -523 -395 -540
-395 -17 0 -540 382 -540 395 0 3 243 5 540 5 297 0 540 -2 540 -5z m-849
-241 c141 -105 268 -193 282 -196 15 -3 39 -3 54 0 14 3 141 91 282 196 141
106 262 195 269 200 9 6 12 -64 12 -334 l0 -342 -136 169 c-75 92 -142 171
-149 175 -18 11 -40 -18 -28 -34 6 -7 69 -86 142 -175 72 -89 131 -165 131
-168 0 -3 -247 -5 -550 -5 -302 0 -550 2 -550 5 0 3 59 79 131 168 73 89 136
168 142 175 12 16 -10 45 -28 34 -7 -4 -74 -83 -149 -175 l-136 -169 0 342 c0
270 3 340 13 334 6 -5 127 -94 268 -200z"/>
</g>
</svg>
