<?xml version="1.0" standalone="no"?>
<!DOCTYPE svg PUBLIC "-//W3C//DTD SVG 20010904//EN"
 "http://www.w3.org/TR/2001/REC-SVG-20010904/DTD/svg10.dtd">
<svg version="1.0" xmlns="http://www.w3.org/2000/svg"
 width="128.000000pt" height="128.000000pt" viewBox="0 0 128.000000 128.000000"
 preserveAspectRatio="xMidYMid meet">

<g transform="translate(0.000000,128.000000) scale(0.100000,-0.100000)"
fill="#000000" stroke="none">
<path d="M768 1003 l-278 -278 0 150 c0 83 5 166 10 187 13 46 77 105 125 114
49 9 104 -1 137 -26 32 -24 61 -26 78 -5 25 30 -12 70 -95 102 -77 30 -190 5
-253 -56 -72 -70 -77 -89 -80 -332 l-3 -216 -34 -33 -33 -32 -7 48 c-11 82
-13 85 -48 82 -29 -3 -32 -7 -35 -40 -2 -20 4 -62 12 -94 l15 -58 -54 -57
c-60 -63 -60 -62 -45 -90 17 -31 52 -23 99 25 l43 43 44 -48 c47 -50 139 -102
212 -119 l42 -11 0 -89 0 -89 -91 -3 c-75 -2 -94 -6 -103 -20 -8 -13 -8 -23 0
-35 10 -16 33 -18 239 -18 206 0 229 2 239 18 8 12 8 22 0 35 -9 14 -29 18
-108 20 l-96 3 0 88 0 89 48 11 c170 43 289 166 323 334 6 31 9 68 5 82 -6 22
-11 26 -39 23 -31 -3 -32 -5 -39 -62 -15 -122 -88 -224 -197 -275 -46 -21 -70
-26 -136 -26 -71 0 -89 4 -147 33 -40 20 -81 49 -103 74 l-35 42 27 28 28 29
34 -42 c98 -118 294 -118 391 -1 51 61 60 112 60 332 l0 195 90 90 c68 68 90
96 90 116 0 25 -15 39 -43 39 -6 0 -136 -125 -289 -277z m67 -361 c-7 -47 -49
-103 -96 -128 -70 -35 -179 -4 -221 64 l-21 34 169 169 169 169 3 -132 c2 -73
0 -152 -3 -176z"/>
</g>
</svg>
