<?xml version="1.0" standalone="no"?>
<!DOCTYPE svg PUBLIC "-//W3C//DTD SVG 20010904//EN"
 "http://www.w3.org/TR/2001/REC-SVG-20010904/DTD/svg10.dtd">
<svg version="1.0" xmlns="http://www.w3.org/2000/svg"
 width="128.000000pt" height="128.000000pt" viewBox="0 0 128.000000 128.000000"
 preserveAspectRatio="xMidYMid meet">

<g transform="translate(0.000000,128.000000) scale(0.100000,-0.100000)"
fill="#000000" stroke="none">
<path d="M165 1268 c-3 -7 -4 -173 -3 -368 l3 -355 475 0 475 0 0 365 0 365
-473 3 c-374 2 -474 0 -477 -10z m915 -68 l0 -40 -440 0 -440 0 0 40 0 40 440
0 440 0 0 -40z m0 -350 l0 -270 -440 0 -440 0 0 270 0 270 440 0 440 0 0 -270z"/>
<path d="M280 1200 c0 -13 7 -20 20 -20 13 0 20 7 20 20 0 13 -7 20 -20 20
-13 0 -20 -7 -20 -20z"/>
<path d="M360 1200 c0 -13 7 -20 20 -20 13 0 20 7 20 20 0 13 -7 20 -20 20
-13 0 -20 -7 -20 -20z"/>
<path d="M440 1200 c0 -13 7 -20 20 -20 13 0 20 7 20 20 0 13 -7 20 -20 20
-13 0 -20 -7 -20 -20z"/>
<path d="M880 1200 c0 -18 7 -20 60 -20 53 0 60 2 60 20 0 18 -7 20 -60 20
-53 0 -60 -2 -60 -20z"/>
<path d="M385 971 c-60 -90 -58 -105 18 -109 56 -3 57 -4 57 -32 0 -23 5 -30
20 -30 16 0 20 7 20 30 0 17 5 30 10 30 6 0 10 9 10 20 0 11 -4 20 -10 20 -5
0 -10 30 -12 68 l-3 67 -32 3 c-30 3 -35 -2 -78 -67z m75 -21 l0 -50 -35 0
c-19 0 -35 3 -35 6 0 8 60 94 65 94 3 0 5 -22 5 -50z"/>
<path d="M572 1028 c-16 -16 -16 -200 0 -216 7 -7 37 -12 68 -12 31 0 61 5 68
12 16 16 16 200 0 216 -7 7 -37 12 -68 12 -31 0 -61 -5 -68 -12z m108 -108 l0
-80 -40 0 -40 0 0 80 0 80 40 0 40 0 0 -80z"/>
<path d="M805 971 c-60 -90 -58 -105 18 -109 56 -3 57 -4 57 -32 0 -23 5 -30
20 -30 16 0 20 7 20 30 0 17 5 30 10 30 6 0 10 9 10 20 0 11 -4 20 -10 20 -5
0 -10 30 -12 68 l-3 67 -32 3 c-30 3 -35 -2 -78 -67z m75 -21 l0 -50 -35 0
c-19 0 -35 3 -35 6 0 8 60 94 65 94 3 0 5 -22 5 -50z"/>
<path d="M520 740 c-11 -11 -20 -29 -20 -40 0 -11 9 -29 20 -40 17 -17 33 -20
120 -20 87 0 103 3 120 20 11 11 20 29 20 40 0 11 -9 29 -20 40 -17 17 -33 20
-120 20 -87 0 -103 -3 -120 -20z m215 -40 c0 -12 -18 -16 -89 -18 -87 -3 -115
5 -101 27 4 8 38 11 98 9 74 -2 92 -6 92 -18z"/>
<path d="M12 1068 c-17 -17 -17 -739 0 -756 9 -9 80 -12 258 -12 l247 0 -16
-87 -16 -88 -35 -3 c-49 -5 -92 -47 -88 -87 l3 -30 275 0 275 0 3 30 c4 40
-39 82 -88 87 l-35 3 -16 88 -16 87 247 0 c178 0 249 3 258 12 17 17 17 739 0
756 -7 7 -34 12 -60 12 -41 0 -48 -3 -48 -20 0 -17 7 -20 40 -20 l40 0 0 -270
0 -270 -600 0 -600 0 0 270 0 270 40 0 c33 0 40 3 40 20 0 17 -7 20 -48 20
-26 0 -53 -5 -60 -12z m1228 -668 l0 -60 -600 0 -600 0 0 60 0 60 600 0 600 0
0 -60z m-620 -140 c0 -22 -4 -40 -10 -40 -5 0 -10 -9 -10 -20 0 -17 7 -20 40
-20 33 0 40 3 40 20 0 11 -4 20 -10 20 -5 0 -10 18 -10 41 0 39 1 40 32 37
l33 -3 16 -87 16 -88 -117 0 -117 0 14 78 c19 103 18 102 53 102 28 0 30 -2
30 -40z m248 -192 c7 -7 12 -16 12 -20 0 -4 -108 -8 -240 -8 -132 0 -240 4
-240 8 0 28 30 32 240 32 155 0 219 -3 228 -12z"/>
<path d="M580 400 c0 -18 7 -20 60 -20 53 0 60 2 60 20 0 18 -7 20 -60 20 -53
0 -60 -2 -60 -20z"/>
</g>
</svg>
