<?xml version="1.0" standalone="no"?>
<!DOCTYPE svg PUBLIC "-//W3C//DTD SVG 20010904//EN"
 "http://www.w3.org/TR/2001/REC-SVG-20010904/DTD/svg10.dtd">
<svg version="1.0" xmlns="http://www.w3.org/2000/svg"
 width="128.000000pt" height="128.000000pt" viewBox="0 0 128.000000 128.000000"
 preserveAspectRatio="xMidYMid meet">

<g transform="translate(0.000000,128.000000) scale(0.100000,-0.100000)"
fill="#000000" stroke="none">
<path d="M80 1183 c-31 -11 -70 -58 -76 -90 -4 -23 10 -95 47 -243 l54 -210
-54 -210 c-59 -232 -60 -258 -12 -304 61 -58 60 -58 572 154 628 260 621 257
644 288 13 18 20 43 20 72 0 65 -25 93 -120 134 -366 157 -1008 416 -1031 415
-16 0 -36 -3 -44 -6z m570 -280 c272 -113 507 -212 523 -219 20 -11 27 -22 27
-44 0 -22 -7 -33 -27 -44 -34 -17 -1009 -421 -1039 -430 -26 -8 -54 16 -54 47
0 12 21 104 46 204 l47 183 195 2 c173 3 196 5 206 21 8 12 8 22 0 35 -10 15
-33 17 -206 20 l-195 2 -47 183 c-25 100 -46 192 -46 204 0 31 28 55 54 47 11
-3 244 -99 516 -211z"/>
</g>
</svg>
