<?xml version="1.0" standalone="no"?>
<!DOCTYPE svg PUBLIC "-//W3C//DTD SVG 20010904//EN"
 "http://www.w3.org/TR/2001/REC-SVG-20010904/DTD/svg10.dtd">
<svg version="1.0" xmlns="http://www.w3.org/2000/svg"
 width="128.000000pt" height="128.000000pt" viewBox="0 0 128.000000 128.000000"
 preserveAspectRatio="xMidYMid meet">

<g transform="translate(0.000000,128.000000) scale(0.100000,-0.100000)"
fill="#000000" stroke="none">
<path d="M754 1144 c-54 -19 -120 -76 -145 -126 -11 -22 -23 -65 -26 -95 l-6
-54 -31 6 c-131 26 -264 102 -359 205 -31 33 -58 60 -60 60 -2 0 -16 -26 -31
-59 -28 -63 -35 -146 -16 -211 7 -25 7 -36 -2 -41 -28 -17 -10 -139 28 -195
14 -21 28 -49 31 -63 10 -60 48 -124 100 -170 l54 -48 -142 -48 c-162 -55
-160 -51 -34 -110 133 -63 172 -70 365 -70 166 0 179 2 255 28 106 37 179 83
247 155 100 104 142 218 154 413 8 118 8 118 81 215 29 39 53 74 53 77 0 4
-18 7 -40 7 l-39 0 24 65 c14 36 21 65 16 65 -5 0 -46 -13 -90 -30 l-80 -29
-66 34 c-57 30 -76 35 -133 34 -37 0 -86 -7 -108 -15z m161 -65 c22 -6 57 -22
77 -36 31 -21 46 -25 82 -21 l44 5 -14 -33 c-18 -43 -18 -54 1 -54 17 0 20
-16 5 -25 -29 -18 -44 -75 -51 -200 -5 -96 -13 -146 -30 -190 -76 -206 -246
-317 -504 -332 -120 -7 -315 21 -315 45 0 4 28 18 63 31 34 13 109 47 167 74
l105 51 -92 7 c-74 6 -102 12 -138 33 -46 27 -77 66 -54 66 7 0 49 10 93 22
l80 21 -89 24 c-95 25 -144 55 -176 107 -30 49 -26 54 38 44 32 -5 70 -8 85
-6 26 3 25 5 -30 48 -76 61 -111 113 -118 176 -8 66 5 74 53 31 117 -104 294
-176 431 -177 l42 0 -6 78 c-7 87 2 116 53 164 28 26 101 57 138 57 11 1 38
-4 60 -10z"/>
</g>
</svg>
