<?xml version="1.0" standalone="no"?>
<!DOCTYPE svg PUBLIC "-//W3C//DTD SVG 20010904//EN"
 "http://www.w3.org/TR/2001/REC-SVG-20010904/DTD/svg10.dtd">
<svg version="1.0" xmlns="http://www.w3.org/2000/svg"
 width="128.000000pt" height="128.000000pt" viewBox="0 0 128.000000 128.000000"
 preserveAspectRatio="xMidYMid meet">

<g transform="translate(0.000000,128.000000) scale(0.100000,-0.100000)"
fill="#000000" stroke="none">
<path d="M551 1263 c-26 -9 -65 -36 -92 -63 -73 -73 -81 -113 -77 -373 3 -200
5 -215 27 -257 32 -62 58 -88 116 -118 100 -52 246 -23 308 60 62 83 62 83 62
338 0 226 -1 237 -23 282 -59 119 -196 175 -321 131z m167 -84 c26 -13 54 -38
70 -62 27 -40 27 -43 30 -241 4 -234 -2 -270 -59 -320 -75 -68 -174 -68 -242
1 -52 52 -59 91 -55 319 3 198 3 201 30 241 30 46 96 83 147 83 19 0 54 -10
79 -21z"/>
<path d="M227 713 c-10 -9 -8 -71 3 -121 36 -153 182 -296 326 -318 l44 -6 0
-94 0 -94 -95 0 c-84 0 -95 -2 -105 -20 -8 -14 -8 -26 0 -40 10 -19 21 -20
240 -20 219 0 230 1 240 20 8 14 8 26 0 40 -10 18 -21 20 -105 20 l-95 0 0 94
0 94 44 6 c166 25 326 206 329 374 l2 67 -32 3 c-35 3 -36 3 -48 -86 -18 -137
-139 -258 -278 -280 -187 -29 -368 100 -392 279 -12 86 -13 89 -44 89 -15 0
-31 -3 -34 -7z"/>
</g>
</svg>
